<svg version="1" xmlns="http://www.w3.org/2000/svg" width="346.667" height="346.667" viewBox="0 0 260.000000 260.000000"><path d="M115 .7C80.4 6 53.4 20.3 32 44.6c-2.1 2.4-4.1 5.1-10.7 14-2.7 3.6-10.6 19.3-12.9 25.6C2.4 100.5.1 114.9.5 133c.2 8 .6 15.8 1 17.5 2.1 9.9 2.8 12.8 5.1 19.8 5.9 18.6 16.7 36.4 31 51.2 5.4 5.6 17.6 15.3 23.3 18.5 1.4.8 2.8 1.7 3.1 2 1.3 1.4 18.6 9.2 25.2 11.4 14.6 4.7 23.2 6 40.8 6 23 0 38.1-3.4 57.2-12.9 18.8-9.3 32.1-20.1 45-36.5 8.2-10.5 8.1-10.4 13.9-22 10.1-20.3 13.9-37.5 13.4-60.5-.2-7.7-.6-15.4-.9-17-.4-1.7-1.1-5.3-1.6-8-4.5-22.1-17.4-46.2-33.9-63.3C218 34 203.4 22 202 22c-.5 0-1.5-.7-2.3-1.5-2.6-2.5-20.8-11.2-29.2-13.9C157 2.3 147.5.8 132 .5c-8-.1-15.6 0-17 .2zM178 70v13h-59v26h55v26h-55v31h61v26H84V57h94v13z"/></svg>